<svg xmlns="http://www.w3.org/2000/svg" xmlns:xlink="http://www.w3.org/1999/xlink" viewBox="0 0 341 36" fill='#fff'>
        <g>
                <path d="M296.61,2.12h-5.35c-0.96,0-1.82,0.6-2.15,1.51l-10.36,28.45c-0.27,0.74,0.28,1.54,1.08,1.54h5.35                        c0.96,0,1.82-0.6,2.15-1.51l10.36-28.45C297.96,2.91,297.41,2.12,296.61,2.12"></path>
                <path d="M227.37,13.98l-2.86,7.85c-0.82,2.26-2.97,3.77-5.38,3.77h-15.49c-1.99,0-3.37-1.98-2.69-3.85l2.86-7.85                        c0.82-2.26,2.97-3.77,5.38-3.77h15.49C226.67,10.14,228.05,12.11,227.37,13.98 M228.01,2.12h-18.47c-6.02,0-11.4,3.76-13.45,9.42                        l-3.84,10.55c-2.04,5.6,2.11,11.53,8.07,11.53h18.47c6.02,0,11.4-3.76,13.45-9.42l3.84-10.55C238.13,8.05,233.97,2.12,228.01,2.12"></path>
                <path d="M337.66,2.12h-33.47c-0.97,0-1.84,0.61-2.17,1.52l-1.81,4.96c-0.27,0.75,0.28,1.54,1.08,1.54h11.31                        c0.79,0,1.35,0.79,1.08,1.54l-7.43,20.41c-0.27,0.75,0.28,1.54,1.08,1.54h5.34c0.97,0,1.84-0.61,2.17-1.52l7.44-20.44                        c0.33-0.91,1.2-1.52,2.17-1.52h10.32c0.97,0,1.84-0.61,2.17-1.52l1.81-4.96C339.01,2.91,338.45,2.12,337.66,2.12"></path>
                <path d="M129.82,2.94L119.08,15.7l-1.23-11.53c-0.13-1.16-1.11-2.05-2.28-2.05h-12.75c-0.96,0-1.82,0.6-2.15,1.51L90.31,32.08                        c-0.27,0.75,0.28,1.54,1.08,1.54h5.35c0.96,0,1.82-0.6,2.15-1.51l7.72-21.22c0.16-0.45,0.6-0.75,1.08-0.75h1.4                        c0.58,0,1.07,0.44,1.14,1.02l1.39,12.41c0.13,1.16,1.11,2.03,2.28,2.03h6.23c0.68,0,1.32-0.3,1.75-0.82l11.96-14.24                        c0.22-0.26,0.54-0.41,0.88-0.41h2.1c0.41,0,0.69,0.43,0.52,0.81l-7.63,21.14c-0.27,0.75,0.28,1.54,1.08,1.54h5.36                        c0.96,0,1.82-0.6,2.15-1.51l10.36-28.45c0.27-0.75-0.28-1.54-1.08-1.54h-15.99C130.89,2.12,130.25,2.42,129.82,2.94"></path>
                <path d="M164.04,10.14h15.2c1.99,0,3.37,1.98,2.69,3.84l-0.15,0.41c-0.82,2.26-2.97,3.77-5.38,3.77h-13.37                        c-0.96,0-1.82,0.6-2.15,1.51l-1.81,4.97c-0.27,0.75,0.28,1.54,1.08,1.54h15.92c6.02,0,11.39-3.76,13.45-9.42l1.13-3.1                        c2.04-5.6-2.11-11.53-8.07-11.53l-18.19,0c-6.02,0-11.39,3.76-13.45,9.42h0l-7.48,20.54c-0.27,0.75,0.28,1.54,1.08,1.54h5.35                        c0.96,0,1.82-0.6,2.15-1.51l6.62-18.2C159.48,11.65,161.63,10.14,164.04,10.14"></path>
                <path d="M83.78,2.12h-20.1c-3.95,0-7.72,1.63-10.43,4.51L37.94,22.9c-1.62,1.72-3.89,2.7-6.26,2.7H13.95                        c-1.99,0-3.37-1.98-2.69-3.84l2.85-7.85c0.82-2.27,2.98-3.77,5.38-3.77H36c0.84,0,1.66,0.13,2.45,0.38                        c0.42,0.13,0.89,0.04,1.19-0.29l4.22-4.48c0.51-0.54,0.39-1.42-0.25-1.78c-1.76-0.99-4.11-1.85-7.02-1.85H19.83                        c-6.02,0-11.39,3.76-13.45,9.42L2.54,22.09c-2.04,5.6,2.11,11.53,8.07,11.53h21.66c3.95,0,7.72-1.63,10.43-4.5l15.32-16.27                        c1.62-1.73,3.89-2.7,6.25-2.7h16.18c1.99,0,3.37,1.98,2.69,3.84l-2.86,7.85c-0.82,2.26-2.97,3.77-5.38,3.77H61.39                        c-2.84,0-4.75-1.33-5.82-2.3c-0.46-0.42-1.15-0.39-1.58,0.06c-1.05,1.1-2.8,2.97-3.78,4.02c-0.41,0.44-0.41,1.12,0.01,1.56                        l0.16,0.16c2.71,2.87,6.48,4.5,10.43,4.5h13.76c6.02,0,11.4-3.76,13.45-9.42l3.84-10.55C93.89,8.05,89.74,2.12,83.78,2.12"></path>
                <path d="M254.38,10.14h15.63c1.97,0,3.79,0.68,5.2,1.9c0.42,0.36,1.08,0.28,1.52-0.14l4.18-4.06c0.47-0.46,0.52-1.17,0.1-1.61                        c-1.32-1.41-4.53-4.1-9.7-4.1h-15.88c-6.02,0-10.63,2-12.76,6.18c-0.46,0.91-0.93,1.81-1.35,2.74c-1.92,4.44,0.73,7.98,4.9,8.71                        c3.03,0.53,6.7,1.01,10.96,1.58c4.41,0.58,8.29,1.06,9.23,1.2c1.28,0.15,1.82,0.55,1.39,1.47c-0.79,1.7-2.22,1.57-4.83,1.61                        l-15.63,0c-1.96,0-3.79-0.69-5.2-1.9c-0.41-0.36-1.08-0.28-1.52,0.14l-4.18,4.06c-0.47,0.46-0.52,1.17-0.1,1.61                        c1.32,1.41,4.53,4.1,9.7,4.1h15.88c6.02,0,10.63-2,12.77-6.18c0.46-0.91,0.93-1.81,1.35-2.74c1.92-4.44-0.73-7.98-4.9-8.71                        c-3.03-0.53-6.7-1.01-10.96-1.57c-4.4-0.58-8.29-1.06-9.23-1.2c-1.28-0.15-1.82-0.55-1.39-1.47                        C250.34,10.06,251.77,10.19,254.38,10.14"></path>
        </g>
</svg>