<?xml version="1.0" encoding="UTF-8"?>
<svg width="89px" height="60px" viewBox="0 0 89 60" version="1.1" xmlns="http://www.w3.org/2000/svg" xmlns:xlink="http://www.w3.org/1999/xlink">
    <title>logo</title>
    <defs>
        <linearGradient x1="28.8251463%" y1="75.2390334%" x2="71.1748537%" y2="24.7609666%" id="linearGradient-1">
            <stop stop-color="#0065EF" offset="0%"></stop>
            <stop stop-color="#00A4D6" offset="60%"></stop>
            <stop stop-color="#00E3BC" offset="100%"></stop>
        </linearGradient>
    </defs>
    <g id="logo" stroke="none" stroke-width="1" fill="none" fill-rule="evenodd">
        <path d="M31.26114,20.71626 C38.79618,20.71626 44.90454,26.82462 44.90454,34.35966 C44.90454,41.8947 38.79618,48.00306 31.26114,48.00306 C27.51954,48.00306 24.13008,46.49646 21.66534,44.05728 L17.54772,48.13188 C18.58686,49.2993 19.21866,50.83752 19.21866,52.5234 C19.21866,56.17284 16.26012,59.13138 12.61062,59.13138 C8.96118,59.13138 6.00264,56.17284 6.00264,52.5234 C6.00264,48.8739 8.96118,45.91536 12.61062,45.91536 C14.2086,45.91536 15.67398,46.48254 16.81668,47.42664 L20.96994,43.3167 C18.8823,40.92012 17.61774,37.78764 17.61774,34.35966 C17.61774,30.95256 18.86682,27.83718 20.93184,25.4463 L16.86486,21.42174 C15.69066,22.43574 14.16078,23.04906 12.48762,23.04906 C8.78676,23.04906 5.78664,20.04894 5.78664,16.34808 C5.78664,12.64728 8.78676,9.64716 12.48762,9.64716 C14.35998,9.64716 16.0527,10.4154 17.26854,11.6535 L20.5464,8.40984 C19.8387,7.56402 19.41258,6.47466 19.41258,5.28558 C19.41258,2.59482 21.59376,0.41364 24.28446,0.41364 C26.97522,0.41364 29.1564,2.59482 29.1564,5.28558 C29.1564,7.97628 26.97522,10.15746 24.28446,10.15746 C23.12826,10.15746 22.06626,9.7545 21.23088,9.0816 L17.8917,12.38598 C18.7068,13.49568 19.18854,14.86554 19.18854,16.34808 C19.18854,18.0306 18.56832,19.56816 17.54424,20.74494 L21.58416,24.74268 C24.0555,22.25604 27.47832,20.71626 31.26114,20.71626 L31.26114,20.71626 Z" id="Path" fill="url(#linearGradient-1)"></path>
        <polygon id="Path" fill="#002D86" fill-rule="nonzero" points="0.47574 28.26786 6.78606 28.26786 6.78606 30.07368 4.61502 30.07368 4.59474 38.41308 8.06436 38.41308 8.81514 36.3435 10.51956 36.93192 9.38328 40.21896 0.47574 40.21896 0.47574 38.41308 2.54538 38.41308 2.56566 30.07368 0.47574 30.07368"></polygon>
        <polygon id="Path" fill="#FEFEFE" fill-rule="nonzero" points="26.25462 28.26858 35.38536 28.26858 36.52164 31.67736 34.81722 32.26578 34.02588 30.0744 30.13014 30.0744 30.13014 33.19914 33.70122 33.19914 33.70122 34.98474 30.13014 34.98474 30.13014 38.4138 34.51284 38.4138 35.26362 36.32388 36.96804 36.9123 35.83176 40.21968 26.23434 40.21968 26.23434 38.4138 28.04022 38.4138 28.0605 30.0744 26.25462 30.0744"></polygon>
        <path d="M61.97148,39.06324 C61.20042,39.60432 60.50718,39.99324 59.8917,40.22994 C59.27622,40.46664 58.48824,40.58502 57.52782,40.58502 C56.37804,40.58502 55.35678,40.33476 54.46398,39.8343 C53.57118,39.33378 52.87458,38.6067 52.37406,37.65306 C51.87354,36.69942 51.62334,35.55972 51.62334,34.23408 C51.62334,32.96256 51.86682,31.84998 52.35378,30.89634 C52.84074,29.94264 53.5374,29.20542 54.4437,28.68468 C55.35,28.16388 56.41866,27.90348 57.64962,27.90348 C59.20518,27.90348 60.49704,28.30254 61.52508,29.1006 L62.09322,31.59636 L60.34824,32.00214 L59.9424,30.19632 C59.59074,30.0069 59.2458,29.86488 58.90758,29.7702 C58.56942,29.67552 58.16364,29.62818 57.69018,29.62818 C57.0003,29.62818 56.35776,29.81418 55.76256,30.18612 C55.16736,30.55812 54.69054,31.09248 54.3321,31.78908 C53.9736,32.48574 53.79438,33.30072 53.79438,34.23408 C53.79438,35.70852 54.14274,36.84144 54.83934,37.63278 C55.536,38.42412 56.42538,38.81976 57.50754,38.81976 C58.03512,38.81976 58.48488,38.76564 58.85688,38.65746 C59.22888,38.54922 59.61102,38.38014 60.0033,38.15016 L60.0033,35.85732 L57.40608,35.85732 L57.40608,34.17324 L61.97148,34.17324 L61.97148,39.06324 L61.97148,39.06324 Z" id="Path" fill="#002D86" fill-rule="nonzero"></path>
        <path d="M74.74854,40.22004 L74.74854,38.41416 L76.71672,38.41416 L79.90236,30.07476 L78.05592,30.07476 L78.05592,28.26894 L82.4184,28.26894 L86.13156,38.41416 L87.99828,38.41416 L87.99828,40.22004 L82.86474,40.22004 L82.86474,38.41416 L84.0213,38.41416 L83.39232,36.62862 L79.21248,36.62862 L78.56316,38.41416 L79.78062,38.41416 L79.78062,40.22004 L74.74854,40.22004 L74.74854,40.22004 Z M79.76034,35.10684 L82.86474,35.10684 L81.36324,30.4806 L79.76034,35.10684 Z" id="Shape" fill="#002D86" fill-rule="nonzero"></path>
    </g>
</svg>