<?xml version="1.0" encoding="UTF-8"?>
<svg id="Layer_1" data-name="Layer 1" xmlns="http://www.w3.org/2000/svg" viewBox="0 0 147.18 58.19">
  <defs>
    <style>
      .cls-1 {
        fill: #008b96;
      }
    </style>
  </defs>
  <g>
    <path class="cls-1" d="M22.42,16.24s.55-6.24.6-6.85c.08-.98-.71-2.77-2.61-2.77h-5.63s-3.39,0-3.39,0h-6.73c-1.91,0-2.83,1.29-2.95,2.53-.07.73-1.37,15.82-1.46,16.69-.14,1.4.83,2.98,2.58,2.98h6.62s2.76,0,2.76,0h0s6.28,0,6.28,0c2.08,0,2.89-1.1,3.06-2.8.11-1.01.62-7.16.62-7.16h-9.46l-.41,4.75h-2.4l1.03-11.79h2.39l-.38,4.41h9.46Z"/>
    <path class="cls-1" d="M37.03,8.53c-.34.97-3.09,9.59-3.09,9.59l1.22-11.5h-9.46s-1.98,22.2-1.98,22.2h7.13c1.79,0,2.4-1.02,2.7-1.83.36-.97,2.98-8.23,2.98-8.23l-.97,10.06h9.47l1.95-22.2s-6.79,0-7.43,0c-1.64,0-2.29,1.21-2.53,1.9"/>
    <path class="cls-1" d="M84.98,6.63l-.89,10.12h-2.4l.89-10.12h-9.47s-.91,10.72-1,11.75c-.11,1.24.58,2.99,2.68,2.99h8.9l-.2,2.25h-11.84l-.46,5.21h18.84c1.27,0,2.51-.83,2.68-2.61.11-1.14,1.74-19.59,1.74-19.59h-9.47Z"/>
    <path class="cls-1" d="M59.74,24.21h-2.42l.48-5.51h2.42l-.48,5.51ZM58.21,14.08l.2-2.25h11.86l.45-5.21h-21.32l-1.94,22.2h3.55s14.19,0,15.33,0,2.5-.71,2.67-2.57c.13-1.39.71-7.99.82-9.19.14-1.6-.88-2.98-2.87-2.98h-8.75Z"/>
    <path class="cls-1" d="M105.35,17.34l.48-5.51h2.37l-.48,5.51h-2.37ZM109.68,6.63h-3.39s-9.47,0-9.47,0l-1.94,22.2h9.46l.6-6.87h3.39-.63s6.44,0,6.44,0c1.63,0,2.71-.83,2.88-2.73.07-.74.82-9.15.87-9.9.11-1.64-1.19-2.7-2.81-2.7h-5.4Z"/>
  </g>
  <g>
    <path class="cls-1" d="M8.65,51.02h-1.47v-9.9H1.71v9.9H.25v-11.1h8.41v11.1Z"/>
    <path class="cls-1" d="M15.93,51.02c-.08-.16-.15-.45-.2-.87-.66.68-1.44,1.02-2.35,1.02-.81,0-1.48-.23-2-.69-.52-.46-.78-1.04-.78-1.75,0-.86.33-1.52.98-2s1.57-.71,2.76-.71h1.37v-.65c0-.49-.15-.88-.44-1.18-.29-.29-.73-.44-1.3-.44-.5,0-.93.13-1.27.38s-.51.56-.51.92h-1.42c0-.41.15-.81.44-1.19.29-.38.69-.69,1.19-.91.5-.22,1.05-.33,1.65-.33.95,0,1.69.24,2.23.71.54.48.82,1.13.84,1.96v3.8c0,.76.1,1.36.29,1.81v.12h-1.48ZM13.59,49.95c.44,0,.86-.11,1.26-.34.4-.23.68-.53.86-.89v-1.69h-1.11c-1.73,0-2.59.5-2.59,1.52,0,.44.15.79.44,1.04.29.25.67.37,1.14.37Z"/>
    <path class="cls-1" d="M26.24,46.99c0,1.25-.29,2.27-.86,3.03-.57.77-1.35,1.15-2.33,1.15s-1.79-.32-2.36-.95v3.97h-1.41v-11.42h1.29l.07.91c.57-.71,1.37-1.07,2.39-1.07s1.77.37,2.35,1.12c.58.75.87,1.79.87,3.12v.13ZM24.83,46.83c0-.93-.2-1.66-.59-2.2-.4-.54-.94-.81-1.63-.81-.85,0-1.49.38-1.92,1.14v3.94c.42.75,1.07,1.13,1.94,1.13.68,0,1.21-.27,1.61-.8.4-.54.6-1.33.6-2.39Z"/>
    <path class="cls-1" d="M34.02,43.92h-2.77v7.1h-1.41v-7.1h-2.71v-1.14h6.89v1.14Z"/>
    <path class="cls-1" d="M42.05,51.02h-1.41v-3.52h-3.79v3.52h-1.42v-8.25h1.42v3.57h3.79v-3.57h1.41v8.25Z"/>
    <path class="cls-1" d="M47.63,51.18c-1.12,0-2.03-.37-2.73-1.1-.7-.73-1.05-1.72-1.05-2.95v-.26c0-.82.16-1.55.47-2.19.31-.64.75-1.15,1.31-1.51s1.17-.54,1.83-.54c1.07,0,1.91.35,2.5,1.06.6.71.89,1.72.89,3.03v.59h-5.59c.02.81.26,1.47.71,1.97s1.03.75,1.73.75c.5,0,.92-.1,1.27-.31s.65-.47.91-.81l.86.67c-.69,1.06-1.73,1.59-3.11,1.59ZM44.99,40.57c0-.23.07-.42.21-.58.14-.16.35-.23.62-.23s.48.08.63.23c.14.16.21.35.21.58s-.07.42-.21.57-.35.23-.63.23-.48-.08-.62-.23c-.14-.15-.21-.34-.21-.57ZM47.45,43.78c-.57,0-1.05.21-1.43.62-.39.41-.62.99-.72,1.74h4.13v-.11c-.04-.72-.23-1.27-.58-1.67s-.81-.59-1.4-.59ZM48.27,40.58c0-.23.07-.42.21-.58.14-.16.35-.24.62-.24s.48.08.63.24c.14.16.21.35.21.58s-.07.42-.21.57-.35.23-.63.23-.48-.08-.62-.23-.21-.34-.21-.58Z"/>
    <path class="cls-1" d="M59.5,46.99c0,1.25-.29,2.27-.86,3.03-.57.77-1.35,1.15-2.33,1.15s-1.79-.32-2.36-.95v3.97h-1.41v-11.42h1.29l.07.91c.57-.71,1.37-1.07,2.39-1.07s1.77.37,2.35,1.12c.58.75.87,1.79.87,3.12v.13ZM58.09,46.83c0-.93-.2-1.66-.59-2.2-.4-.54-.94-.81-1.63-.81-.85,0-1.49.38-1.92,1.14v3.94c.42.75,1.07,1.13,1.94,1.13.68,0,1.21-.27,1.61-.8.4-.54.6-1.33.6-2.39Z"/>
    <path class="cls-1" d="M62.77,45.62h2.14c.93.01,1.67.25,2.22.73s.82,1.13.82,1.94-.28,1.48-.84,1.98c-.56.5-1.31.75-2.26.75h-3.49v-8.25h1.41v2.84ZM62.77,46.77v3.1h2.1c.53,0,.94-.14,1.23-.41.29-.27.43-.64.43-1.12s-.14-.83-.42-1.12c-.28-.29-.68-.44-1.19-.45h-2.15ZM70.89,51.02h-1.42v-8.25h1.42v8.25Z"/>
    <path class="cls-1" d="M76.71,49.87l.49-.6c.55-.71.86-1.78.94-3.2l.13-3.29h5.31v7.1h1.06v3.58h-1.41v-2.42h-5.76v2.42h-1.41v-3.58h.65ZM78.38,49.87h3.79v-5.79h-2.54l-.08,1.97c-.09,1.64-.48,2.92-1.17,3.83Z"/>
    <path class="cls-1" d="M93.22,42.78v8.25h-1.42v-7.08h-2.81l-.17,3.09c-.09,1.42-.33,2.43-.71,3.04-.38.61-.99.93-1.83.95h-.56v-1.24l.4-.03c.46-.05.79-.32.98-.79s.33-1.36.38-2.65l.15-3.53h5.57Z"/>
    <path class="cls-1" d="M101.68,42.78v8.25h-1.42v-3.21h-2.13l-1.94,3.21h-1.52l2.07-3.42c-.53-.19-.93-.49-1.22-.9-.28-.4-.42-.88-.42-1.41,0-.75.28-1.36.85-1.82.56-.46,1.32-.69,2.26-.7h3.47ZM96.52,45.31c0,.4.14.72.41.97.27.25.64.37,1.09.38h2.24v-2.74h-2.03c-.52,0-.94.13-1.25.38-.31.26-.47.59-.47,1Z"/>
    <path class="cls-1" d="M114.34,46.99c0,1.25-.29,2.27-.86,3.03-.57.77-1.35,1.15-2.33,1.15s-1.79-.32-2.36-.95v3.97h-1.41v-11.42h1.29l.07.91c.57-.71,1.37-1.07,2.39-1.07s1.77.37,2.35,1.12c.58.75.87,1.79.87,3.12v.13ZM112.93,46.83c0-.93-.2-1.66-.59-2.2-.4-.54-.94-.81-1.63-.81-.85,0-1.49.38-1.92,1.14v3.94c.42.75,1.07,1.13,1.94,1.13.68,0,1.21-.27,1.61-.8.4-.54.6-1.33.6-2.39Z"/>
    <path class="cls-1" d="M115.72,46.82c0-.81.16-1.54.48-2.18.32-.64.76-1.14,1.33-1.49s1.21-.53,1.94-.53c1.12,0,2.03.39,2.73,1.17.69.78,1.04,1.81,1.04,3.1v.1c0,.8-.15,1.52-.46,2.16-.31.64-.75,1.13-1.32,1.49-.57.36-1.23.53-1.97.53-1.12,0-2.02-.39-2.72-1.17-.69-.78-1.04-1.81-1.04-3.09v-.1ZM117.14,46.99c0,.91.21,1.65.64,2.2.42.55.99.83,1.7.83s1.29-.28,1.71-.84c.42-.56.63-1.35.63-2.36,0-.9-.21-1.64-.64-2.2-.43-.56-1-.84-1.71-.84s-1.26.28-1.68.83c-.43.55-.64,1.35-.64,2.38Z"/>
    <path class="cls-1" d="M128.28,50.03c.5,0,.94-.15,1.32-.46.38-.31.58-.69.63-1.14h1.33c-.03.47-.19.92-.49,1.35-.3.43-.7.77-1.2,1.02-.5.25-1.03.38-1.59.38-1.12,0-2.02-.37-2.68-1.12-.66-.75-.99-1.77-.99-3.08v-.24c0-.8.15-1.52.44-2.14.29-.63.72-1.11,1.27-1.46.55-.35,1.2-.52,1.96-.52.92,0,1.69.28,2.31.83.61.55.94,1.27.98,2.16h-1.33c-.04-.53-.24-.97-.61-1.31-.36-.34-.81-.52-1.35-.52-.72,0-1.27.26-1.67.77-.39.52-.59,1.26-.59,2.24v.27c0,.95.2,1.68.59,2.2.39.51.95.77,1.68.77Z"/>
    <path class="cls-1" d="M139.34,43.92h-2.77v7.1h-1.41v-7.1h-2.71v-1.14h6.89v1.14Z"/>
    <path class="cls-1" d="M145.7,51.02c-.08-.16-.15-.45-.2-.87-.66.68-1.44,1.02-2.35,1.02-.81,0-1.48-.23-2-.69-.52-.46-.78-1.04-.78-1.75,0-.86.33-1.52.98-2s1.57-.71,2.76-.71h1.37v-.65c0-.49-.15-.88-.44-1.18-.29-.29-.73-.44-1.3-.44-.5,0-.93.13-1.27.38s-.51.56-.51.92h-1.42c0-.41.15-.81.44-1.19.29-.38.69-.69,1.19-.91.5-.22,1.05-.33,1.65-.33.95,0,1.69.24,2.23.71.54.48.82,1.13.84,1.96v3.8c0,.76.1,1.36.29,1.81v.12h-1.48ZM143.36,49.95c.44,0,.86-.11,1.26-.34.4-.23.68-.53.86-.89v-1.69h-1.11c-1.73,0-2.59.5-2.59,1.52,0,.44.15.79.44,1.04.29.25.67.37,1.14.37Z"/>
  </g>
</svg>