<svg width="126" height="57" viewBox="0 0 126 57" fill="none" xmlns="http://www.w3.org/2000/svg">
<g clip-path="url(#clip0_29_595)">
<path fill-rule="evenodd" clip-rule="evenodd" d="M0 28.5C0 52.5876 71.028 56.3889 92.2364 56.3889C108.197 56.3889 125.5 45.8085 125.5 28.5C125.5 11.1915 108.195 0.611084 92.2364 0.611084C71.028 0.611084 0 4.41234 0 28.5Z" fill="#00673F"/>
<path fill-rule="evenodd" clip-rule="evenodd" d="M100.121 27.504L98.7676 25.6489L100.788 21.7437L100.51 25.1481L101.043 26.371L100.121 27.504Z" fill="white" stroke="white" stroke-width="0.57" stroke-miterlimit="22.93"/>
<path d="M101.178 27.6159H98.9818V34.8236H101.178V27.6159Z" fill="white" stroke="white" stroke-width="0.57" stroke-miterlimit="22.93"/>
<path fill-rule="evenodd" clip-rule="evenodd" d="M113.379 37.3645H87.6447L100.541 15.2645L113.379 37.3645Z" stroke="white" stroke-width="0.7" stroke-miterlimit="22.93"/>
<path fill-rule="evenodd" clip-rule="evenodd" d="M100.512 39.7829C106.083 39.7829 110.627 35.2678 110.627 29.7318C110.627 24.1959 106.083 19.6808 100.512 19.6808C94.9407 19.6808 90.3967 24.1959 90.3967 29.7318C90.3967 35.2678 94.9407 39.7829 100.512 39.7829Z" stroke="white" stroke-width="0.7" stroke-miterlimit="22.93"/>
<path fill-rule="evenodd" clip-rule="evenodd" d="M74.6727 35.1374C75.9302 35.1374 77.0327 34.8055 77.9801 34.1419C78.9274 33.4781 79.6542 32.5903 80.1605 31.4779C80.6669 30.3657 80.9199 29.1368 80.9199 27.7913C80.9199 26.3561 80.5116 25.2127 79.6948 24.3606C78.8781 23.5085 77.7268 23.0825 76.2404 23.0825C74.9828 23.0825 73.8804 23.4144 72.933 24.078C71.9856 24.7418 71.2589 25.6296 70.7525 26.742C70.2462 27.8542 69.9931 29.0831 69.9931 30.4286C69.9931 31.8638 70.4015 33.0072 71.2182 33.8593C72.035 34.7114 73.1863 35.1374 74.6727 35.1374ZM74.3294 38.8507C72.6144 38.8507 71.1282 38.5099 69.8705 37.8282C68.6129 37.1465 67.6491 36.1869 66.9794 34.9492C66.31 33.7114 65.9752 32.2854 65.9752 30.6708C65.9752 28.5361 66.4202 26.6122 67.3105 24.8991C68.2006 23.1857 69.4501 21.836 71.0589 20.8494C72.6677 19.8628 74.5091 19.3694 76.5834 19.3694C78.2984 19.3694 79.7848 19.7105 81.0423 20.3919C82.2999 21.0736 83.2635 22.0332 83.9334 23.271C84.6028 24.5087 84.9376 25.9348 84.9376 27.5493C84.9376 29.684 84.4926 31.6079 83.6023 33.3213C82.7122 35.0344 81.4627 36.3841 79.8539 37.371C78.2451 38.3576 76.4037 38.851 74.3291 38.851L74.3294 38.8507Z" fill="white"/>
<path fill-rule="evenodd" clip-rule="evenodd" d="M85.8607 17.1859H65.5443L61.4015 38.5277H57.2084L61.3764 17.2188H18.6669L19.3151 13.9318H86.5339L85.8607 17.1859Z" fill="#ED1C24"/>
<path fill-rule="evenodd" clip-rule="evenodd" d="M40.8719 19.6919H45.0645L42.6275 31.9621L53.765 19.6919H57.8006L54.132 38.5277H49.9391L52.4023 26.2845L41.2386 38.5277H37.2028L40.8719 19.6919Z" fill="white"/>
<path fill-rule="evenodd" clip-rule="evenodd" d="M37.9217 19.6919L34.4463 38.5277H30.671L32.7463 27.307L26.0455 36.5367H24.2203L20.6198 27.1725L18.5198 38.5277H14.7443L18.2448 19.6919H21.545L25.9204 31.4241L34.4463 19.6919H37.9217Z" fill="white"/>
</g>
<defs>
<clipPath id="clip0_29_595">
<rect width="125.5" height="55.7778" fill="white" transform="translate(0 0.611084)"/>
</clipPath>
</defs>
</svg>
