<?xml version="1.0" encoding="utf-8"?>
<!-- Generator: Adobe Illustrator 17.0.0, SVG Export Plug-In . SVG Version: 6.00 Build 0)  -->
<!DOCTYPE svg PUBLIC "-//W3C//DTD SVG 1.1//EN" "http://www.w3.org/Graphics/SVG/1.1/DTD/svg11.dtd">
<svg version="1.1" id="Слой_1" xmlns="http://www.w3.org/2000/svg" xmlns:xlink="http://www.w3.org/1999/xlink" x="0px" y="0px"
	 width="127px" height="66px" viewBox="0 0 127 66" enable-background="new 0 0 127 66" xml:space="preserve">
<g>
	<path fill-rule="evenodd" clip-rule="evenodd" fill="#4FAC6B" d="M54.017,21.943l-5.277-1.236c1.136-4.367,4.361-6.55,9.675-6.55
		c3.144,0,5.521,0.692,7.125,2.078c1.603,1.385,2.401,3.013,2.401,4.884c0,1.279-0.368,2.433-1.098,3.468
		c-0.73,1.029-1.828,1.934-3.288,2.72c1.772,0.611,3.107,1.472,3.993,2.589c0.886,1.123,1.329,2.496,1.329,4.137
		c0,2.358-0.861,4.261-2.589,5.714c-1.721,1.453-4.304,2.183-7.741,2.183c-2.801,0-5.016-0.467-6.638-1.403
		c-1.622-0.936-2.838-2.689-3.655-5.259l4.941-1.609c0.512,1.616,1.198,2.664,2.046,3.138c0.848,0.48,1.897,0.717,3.144,0.717
		c1.71,0,2.957-0.368,3.744-1.11c0.78-0.742,1.173-1.591,1.173-2.552c0-1.098-0.443-1.99-1.329-2.664
		c-0.88-0.674-2.215-1.01-3.993-1.01h-1.229v-4.042h0.617c1.653,0,2.92-0.375,3.793-1.117c0.88-0.742,1.316-1.734,1.316-2.963
		c0-0.98-0.355-1.803-1.067-2.476c-0.711-0.667-1.727-1.004-3.05-1.004C56.094,18.574,54.647,19.696,54.017,21.943z M73.649,41.443
		V14.644h8.677c3.287,0,5.427,0.13,6.425,0.399c1.535,0.405,2.82,1.279,3.855,2.626c1.036,1.348,1.554,3.088,1.554,5.221
		c0,1.647-0.3,3.026-0.892,4.149c-0.599,1.123-1.354,2.003-2.271,2.645c-0.917,0.636-1.853,1.06-2.801,1.266
		c-1.291,0.256-3.156,0.387-5.602,0.387h-3.519v10.106H73.649z M79.076,19.172v7.636h2.951c2.128,0,3.544-0.144,4.261-0.424
		c0.717-0.281,1.279-0.717,1.684-1.322c0.406-0.599,0.611-1.292,0.611-2.09c0-0.98-0.287-1.784-0.854-2.421
		c-0.574-0.636-1.292-1.035-2.171-1.197c-0.642-0.119-1.934-0.181-3.88-0.181H79.076z M96.999,28.205
		c0-2.732,0.412-5.028,1.229-6.887c0.605-1.366,1.441-2.595,2.495-3.68c1.054-1.085,2.208-1.89,3.463-2.42
		c1.672-0.705,3.599-1.061,5.783-1.061c3.955,0,7.112,1.229,9.488,3.681c2.371,2.458,3.556,5.87,3.556,10.243
		c0,4.336-1.179,7.73-3.53,10.175c-2.352,2.451-5.503,3.674-9.438,3.674c-3.987,0-7.162-1.216-9.514-3.655
		C98.178,35.841,96.999,32.485,96.999,28.205z M102.576,28.025c0,3.038,0.705,5.34,2.109,6.911c1.404,1.566,3.188,2.352,5.346,2.352
		c2.165,0,3.937-0.78,5.328-2.333c1.385-1.56,2.078-3.893,2.078-7.006c0-3.076-0.674-5.372-2.028-6.881
		c-1.348-1.516-3.138-2.271-5.378-2.271c-2.233,0-4.036,0.767-5.402,2.296C103.262,22.629,102.576,24.937,102.576,28.025z"/>
	<path fill-rule="evenodd" clip-rule="evenodd" fill="#4FAC6B" d="M27.317,40.988v-22.57h3.316v8.761
		c0,0.114,0.034,0.149,0.149,0.149h3.514V15.003c0.279,0.187,0.891,0.867,1.176,1.151l8.278,8.352
		c-0.223,0.333-9.733,9.707-11.001,11.024c-0.117,0.122-0.135,0.178-0.246,0.299c-0.764,0.826-2.249,2.248-3.094,3.093
		C29.091,39.239,27.525,40.849,27.317,40.988z M16.676,15.003v11.681c-0.001,0.248-0.08,0.644,0.149,0.644h3.514v-8.909h3.316v22.57
		c-0.357-0.239-0.706-0.707-1.002-1.028c-0.764-0.825-2.249-2.247-3.094-3.093l-9.206-9.256c-0.414-0.414-2.911-2.959-3.131-3.106
		l7.066-7.14C14.641,17.012,16.453,15.152,16.676,15.003z M25.486,6.143c0.243,0.163,4.338,4.316,4.813,4.789
		c0.205,0.204,0.319,0.371,0.52,0.569c0.415,0.41,3.083,3.035,3.23,3.254H16.923c0.156-0.233,3.967-3.991,4.269-4.294
		c0.924-0.924,2.646-2.576,3.49-3.489C24.895,6.743,25.149,6.369,25.486,6.143z M2.124,24.456c0.073,0.273,2.185,2.212,2.536,2.611
		c0.139,0.158,0.189,0.239,0.347,0.396c1.102,1.093,2.216,2.182,3.266,3.317c0.125,0.135,0.24,0.238,0.372,0.37l6.582,6.683
		c0.509,0.506,0.978,0.977,1.486,1.484c0.534,0.534,1.351,1.306,1.809,1.854l6.964,7.043l8.055-8.13
		c0.263-0.262,0.45-0.5,0.718-0.767l2.943-2.947c0.429-0.514,0.962-1.007,1.438-1.483l1.832-1.831
		c0.154-0.152,0.204-0.25,0.345-0.397l2.946-2.944c0.265-0.265,0.451-0.5,0.718-0.767l2.968-2.972
		c0.389-0.466,1.311-1.313,1.45-1.52c-0.214-0.143-0.525-0.501-0.73-0.705l-1.089-1.088c-0.154-0.152-0.204-0.251-0.345-0.398
		l-2.946-2.944c-0.265-0.265-0.451-0.5-0.718-0.767c-1.976-1.976-3.889-3.938-5.865-5.915l-2.92-2.97
		c-0.251-0.251-0.466-0.466-0.718-0.718c-0.266-0.266-0.452-0.501-0.718-0.767l-7.313-7.437L5.774,20.732
		c-0.267,0.266-0.452,0.503-0.718,0.767C4.804,21.751,2.265,24.245,2.124,24.456z"/>
</g>
<g>
	<path fill="#4EAB6A" d="M14.673,59.651h2.967v-2.66h0.951v6.191h-0.951v-2.644h-2.967v2.644h-0.951v-6.191h0.951V59.651z"/>
	<path fill="#4EAB6A" d="M20.044,61.424c0-1.419,1.253-1.673,2.402-1.822c1.129-0.145,1.596-0.105,1.596-0.564v-0.032
		c0-0.794-0.431-1.258-1.306-1.258c-0.907,0-1.403,0.484-1.612,0.935l-0.903-0.323c0.484-1.129,1.548-1.451,2.483-1.451
		c0.79,0,2.29,0.225,2.29,2.193v4.079h-0.951v-0.838h-0.048c-0.193,0.403-0.758,0.984-1.838,0.984
		C20.979,63.327,20.044,62.634,20.044,61.424z M24.043,60.941V60.07c-0.161,0.194-1.241,0.306-1.644,0.355
		c-0.742,0.097-1.403,0.323-1.403,1.048c0,0.661,0.548,1,1.306,1C23.43,62.473,24.043,61.715,24.043,60.941z"/>
	<path fill="#4EAB6A" d="M27.688,56.991v5.304h2.338v-5.304h0.951v5.304h2.338v-5.304h0.951v6.191h-7.529v-6.191H27.688z"/>
	<path fill="#4EAB6A" d="M38.915,60.118c0-1.886,1.112-3.208,2.789-3.208c1.306,0,2.29,0.774,2.451,1.935h-0.951
		c-0.145-0.564-0.645-1.08-1.483-1.08c-1.112,0-1.854,0.919-1.854,2.322c0,1.435,0.725,2.37,1.854,2.37
		c0.742,0,1.306-0.403,1.483-1.08h0.951c-0.161,1.096-1.064,1.935-2.434,1.935C39.979,63.311,38.915,61.972,38.915,60.118z"/>
	<path fill="#4EAB6A" d="M44.995,62.295h0.226c0.742,0,0.951-0.483,1.032-2.563l0.113-2.741h4.127v6.191h-0.951v-5.304h-2.273
		l-0.097,2.209c-0.089,2.032-0.484,3.096-1.854,3.096h-0.323V62.295z"/>
	<path fill="#4EAB6A" d="M51.946,60.135c0-1.902,1.112-3.224,2.789-3.224c1.29,0,2.66,0.79,2.66,3.096v0.403h-4.494
		c0.044,1.326,0.814,2.047,1.931,2.047c0.746,0,1.306-0.323,1.548-0.967l0.919,0.258c-0.29,0.935-1.209,1.564-2.467,1.564
		C53.043,63.311,51.946,62.037,51.946,60.135z M56.429,59.587c0-1.048-0.661-1.822-1.693-1.822c-1.088,0-1.769,0.858-1.834,1.822
		H56.429z"/>
	<path fill="#4EAB6A" d="M58.188,62.295h0.516c0.5-0.524,0.721-1.12,0.871-2.853l0.21-2.451h3.934v5.304h0.951v2.66h-0.951v-1.774
		H59.14v1.774h-0.951V62.295z M62.767,62.295v-4.417h-2.096l-0.161,1.564c-0.133,1.294-0.29,2.281-0.726,2.853H62.767z"/>
	<path fill="#4EAB6A" d="M69.123,56.991h2.531c1.33,0,2.177,0.657,2.177,1.644c0,0.754-0.496,1.145-1.193,1.29
		c0.681,0.101,1.419,0.625,1.419,1.596c0,0.951-0.758,1.661-2.015,1.661h-2.918V56.991z M71.655,59.587
		c0.762,0,1.225-0.335,1.225-0.887c0-0.52-0.464-0.838-1.225-0.838h-1.628v1.725H71.655z M72.042,62.311
		c0.653,0,1.048-0.331,1.048-0.871c0-0.641-0.395-1.032-1.048-1.032h-2.015v1.902H72.042z"/>
	<path fill="#4EAB6A" d="M82.621,56.991h1.096v6.191h-0.951v-4.788L79.8,63.182h-1.113v-6.191h0.951v4.788L82.621,56.991z"/>
	<path fill="#4EAB6A" d="M85.171,60.118c0-1.886,1.112-3.208,2.789-3.208c1.306,0,2.289,0.774,2.45,1.935H89.46
		c-0.145-0.564-0.645-1.08-1.484-1.08c-1.112,0-1.854,0.919-1.854,2.322c0,1.435,0.726,2.37,1.854,2.37
		c0.742,0,1.306-0.403,1.484-1.08h0.951c-0.161,1.096-1.064,1.935-2.435,1.935C86.235,63.311,85.171,61.972,85.171,60.118z"/>
	<path fill="#4EAB6A" d="M91.316,56.991h5.03v0.887h-2.031v5.304h-0.951v-5.304h-2.047V56.991z"/>
	<path fill="#4EAB6A" d="M97.123,60.118c0-1.935,1.129-3.208,2.805-3.208c1.677,0,2.805,1.274,2.805,3.208
		c0,1.919-1.129,3.192-2.805,3.192C98.251,63.311,97.123,62.037,97.123,60.118z M101.782,60.118c0-1.241-0.58-2.354-1.854-2.354
		c-1.274,0-1.854,1.112-1.854,2.354c0,1.241,0.581,2.338,1.854,2.338C101.202,62.456,101.782,61.36,101.782,60.118z"/>
	<path fill="#4EAB6A" d="M104.187,56.991h0.919v0.984h0.113c0.21-0.323,0.581-1.064,1.79-1.064c1.564,0,2.644,1.241,2.644,3.192
		c0,1.967-1.08,3.208-2.628,3.208c-1.193,0-1.596-0.741-1.806-1.08h-0.08v3.273h-0.951V56.991z M106.895,62.456
		c1.193,0,1.806-1.048,1.806-2.37c0-1.306-0.597-2.322-1.806-2.322c-1.161,0-1.774,0.935-1.774,2.322
		C105.122,61.489,105.751,62.456,106.895,62.456z"/>
	<path fill="#4EAB6A" d="M115.04,56.991h1.096v6.191h-0.951v-4.788l-2.966,4.788h-1.113v-6.191h0.951v4.788L115.04,56.991z"/>
	<path fill="#4EAB6A" d="M121.814,56.991h1.096v6.191h-0.951v-4.788l-2.966,4.788h-1.113v-6.191h0.951v4.788L121.814,56.991z"/>
</g>
</svg>
